<svg width="12" height="20" viewBox="0 0 12 20" fill="none" xmlns="http://www.w3.org/2000/svg">
<path d="M5.9859 10.341C3.1609 10.341 0.812903 7.995 0.812903 5.219C0.812903 2.347 3.1609 0 5.9869 0C8.9089 0 11.1599 2.346 11.1599 5.219C11.1549 6.58205 10.6088 7.88733 9.64184 8.84797C8.67482 9.80861 7.36596 10.346 6.0029 10.342L5.9859 10.341ZM5.9859 3.017C4.7899 3.017 3.8799 4.022 3.8799 5.22C3.8799 6.416 4.7899 7.326 5.9869 7.326C7.2319 7.326 8.0939 6.416 8.0939 5.22C8.0949 4.021 7.2319 3.017 5.9859 3.017ZM8.0459 14.603L10.9689 17.428C11.5439 18.049 11.5439 18.959 10.9689 19.534C10.3469 20.155 9.3879 20.155 8.9089 19.534L5.9869 16.661L3.1609 19.534C2.8739 19.821 2.4899 19.964 2.0579 19.964C1.7229 19.964 1.3399 19.82 1.0039 19.534C0.428903 18.959 0.428903 18.049 1.0039 17.427L3.9739 14.602C2.90134 14.2844 1.87244 13.8346 0.910902 13.263C0.191902 12.88 0.0489028 11.923 0.431903 11.204C0.910903 10.486 1.7729 10.295 2.5399 10.774C3.5785 11.4078 4.77168 11.7431 5.9884 11.7431C7.20512 11.7431 8.39831 11.4078 9.4369 10.774C10.2039 10.295 11.1129 10.486 11.5439 11.204C11.9759 11.923 11.7829 12.879 11.1119 13.263C10.2029 13.838 9.1489 14.269 8.0469 14.604L8.0459 14.603Z" fill="white"/>
</svg>
