<svg width="22" height="16" viewBox="0 0 22 16" fill="none" xmlns="http://www.w3.org/2000/svg">
<path d="M21.5 7.93432C21.5 7.88276 21.5 7.82416 21.4977 7.7562C21.4953 7.56635 21.4906 7.35307 21.4859 7.12573C21.4672 6.47182 21.4344 5.82026 21.3828 5.20619C21.3125 4.3601 21.2094 3.65463 21.0687 3.12494C20.9204 2.57217 20.6295 2.06803 20.2252 1.66291C19.8209 1.25778 19.3173 0.965873 18.7648 0.816351C18.1016 0.638226 16.8031 0.52807 14.975 0.460101C14.1055 0.427289 13.175 0.406195 12.2445 0.394476C11.9187 0.389789 11.6164 0.387445 11.3445 0.385101H10.6555C10.3836 0.387445 10.0813 0.389789 9.75547 0.394476C8.825 0.406195 7.89453 0.427289 7.025 0.460101C5.19687 0.530414 3.89609 0.64057 3.23516 0.816351C2.6825 0.965506 2.17876 1.25729 1.7744 1.66247C1.37004 2.06765 1.07928 2.57199 0.93125 3.12494C0.788281 3.65463 0.6875 4.3601 0.617188 5.20619C0.565625 5.82026 0.532812 6.47182 0.514062 7.12573C0.507031 7.35307 0.504687 7.56635 0.502344 7.7562C0.502344 7.82416 0.5 7.88276 0.5 7.93432V8.06557C0.5 8.11713 0.5 8.17573 0.502344 8.2437C0.504687 8.43354 0.509375 8.64682 0.514062 8.87416C0.532812 9.52807 0.565625 10.1796 0.617188 10.7937C0.6875 11.6398 0.790625 12.3453 0.93125 12.8749C1.23125 13.9976 2.1125 14.8835 3.23516 15.1835C3.89609 15.3617 5.19687 15.4718 7.025 15.5398C7.89453 15.5726 8.825 15.5937 9.75547 15.6054C10.0813 15.6101 10.3836 15.6124 10.6555 15.6148H11.3445C11.6164 15.6124 11.9187 15.6101 12.2445 15.6054C13.175 15.5937 14.1055 15.5726 14.975 15.5398C16.8031 15.4695 18.1039 15.3593 18.7648 15.1835C19.8875 14.8835 20.7687 13.9999 21.0687 12.8749C21.2117 12.3453 21.3125 11.6398 21.3828 10.7937C21.4344 10.1796 21.4672 9.52807 21.4859 8.87416C21.493 8.64682 21.4953 8.43354 21.4977 8.2437C21.4977 8.17573 21.5 8.11713 21.5 8.06557V7.93432ZM19.8125 8.0562C19.8125 8.10541 19.8125 8.15932 19.8102 8.2226C19.8078 8.40541 19.8031 8.60698 19.7984 8.82495C19.782 9.44838 19.7492 10.0718 19.7 10.6507C19.6367 11.4054 19.5477 12.0242 19.4375 12.439C19.2922 12.9804 18.8656 13.4093 18.3266 13.5523C17.8344 13.6835 16.5945 13.789 14.9094 13.8523C14.0562 13.8851 13.1375 13.9062 12.2211 13.9179C11.9 13.9226 11.6023 13.9249 11.3352 13.9249H10.6648L9.77891 13.9179C8.8625 13.9062 7.94609 13.8851 7.09063 13.8523C5.40547 13.7867 4.16328 13.6835 3.67344 13.5523C3.13437 13.407 2.70781 12.9804 2.5625 12.439C2.45234 12.0242 2.36328 11.4054 2.3 10.6507C2.25078 10.0718 2.22031 9.44838 2.20156 8.82495C2.19453 8.60698 2.19219 8.40307 2.18984 8.2226C2.18984 8.15932 2.1875 8.10307 2.1875 8.0562V7.9437C2.1875 7.89448 2.1875 7.84057 2.18984 7.77729C2.19219 7.59448 2.19688 7.39291 2.20156 7.17494C2.21797 6.55151 2.25078 5.92807 2.3 5.34916C2.36328 4.59448 2.45234 3.97573 2.5625 3.56088C2.70781 3.01948 3.13437 2.59057 3.67344 2.4476C4.16562 2.31635 5.40547 2.21088 7.09063 2.1476C7.94375 2.11479 8.8625 2.09369 9.77891 2.08198C10.1 2.07729 10.3977 2.07495 10.6648 2.07495H11.3352L12.2211 2.08198C13.1375 2.09369 14.0539 2.11479 14.9094 2.1476C16.5945 2.21323 17.8367 2.31635 18.3266 2.4476C18.8656 2.59291 19.2922 3.01948 19.4375 3.56088C19.5477 3.97573 19.6367 4.59448 19.7 5.34916C19.7492 5.92807 19.7797 6.55151 19.7984 7.17494C19.8055 7.39291 19.8078 7.59682 19.8102 7.77729C19.8102 7.84057 19.8125 7.89682 19.8125 7.9437V8.0562ZM8.91406 11.1406L14.3516 7.97651L8.91406 4.85932V11.1406Z" fill="white"/>
</svg>
